<svg width="182" height="41" viewBox="0 0 182 41" fill="none" xmlns="http://www.w3.org/2000/svg">
<g clip-path="url(#clip0)">
<path fill-rule="evenodd" clip-rule="evenodd" d="M210.371 75.4613V60.2744H9.99597V75.4613H210.371ZM77.0512 26.4339H71.6076V30.0803H77.0512C77.8148 30.0803 78.3129 29.2028 78.3129 28.2571C78.3129 27.3455 77.8148 26.4339 77.0512 26.4339ZM88.0711 25.7177L85.6141 31.2849H90.5264L88.0711 25.7177ZM130.889 25.8495L128.433 31.2849H133.279L130.889 25.8495ZM148.05 26.4665H142.742V30.2105H147.951C148.914 30.2105 149.446 29.2664 149.446 28.3532C149.446 27.4106 148.815 26.4665 148.05 26.4665ZM163.816 26.6618C163.482 26.3704 163.054 26.2727 162.556 26.2727H157.442V33.4662H162.556C163.019 33.4662 163.482 33.4011 163.781 33.1406C164.179 32.7515 164.38 31.7407 164.38 29.7563C164.382 27.8013 164.314 27.02 163.816 26.6618ZM77.9793 32.488H71.6061V35.8397H68.9831V24.0573H77.6789C79.7706 24.0573 80.9674 25.7177 80.9674 28.3222C80.969 30.6973 79.7722 32.488 77.9793 32.488ZM92.5517 35.8397L91.5573 33.5933H84.5864L83.5572 35.8397H80.803L86.0473 24.0573H88.5359C89.6979 24.0573 90.2292 24.4805 90.626 25.2929C90.8932 25.8479 95.3723 35.8397 95.3723 35.8397H92.5517ZM108.318 34.8971C107.421 35.7762 106.824 35.9374 102.974 35.9374C99.2569 35.9374 98.5929 35.8723 97.6632 34.8971C96.8 34.0197 96.634 32.5856 96.634 29.9175C96.634 27.3455 96.8 25.913 97.6632 25.0355C98.5929 24.0588 99.2569 23.9937 102.974 23.9937C106.824 23.9937 107.421 24.1565 108.318 25.0355C108.716 25.4262 108.947 26.1099 108.947 26.8587V27.6075H106.425C106.425 27.6075 106.392 26.8913 106.193 26.6308C105.962 26.3394 105.431 26.2092 102.939 26.2092C100.318 26.2092 99.9194 26.2417 99.6522 26.5673C99.3866 26.8603 99.2886 27.5114 99.2886 29.9191C99.2886 32.3608 99.3866 33.0104 99.6522 33.305C99.9178 33.6305 100.316 33.6631 102.939 33.6631C105.429 33.6631 105.961 33.5329 106.193 33.2414C106.392 32.9794 106.357 32.6228 106.357 32.2632H108.947V33.0786C108.949 33.8212 108.716 34.5065 108.318 34.8971ZM118.078 29.592L122.759 34.2445V35.8397H120.799L115.754 30.8601H114.062V35.8397H111.44V24.0573H114.062V28.3532H115.754L120.203 24.0573H123.754L118.078 29.592ZM135.37 35.8397L134.307 33.5933H127.403L126.375 35.8397H124.285V34.2445L128.898 24.0573H131.322C132.514 24.0573 133.049 24.4805 133.412 25.2929C133.678 25.8479 138.158 35.8397 138.158 35.8397H135.37ZM150.739 32.1314C151.303 32.5221 151.669 33.1391 151.669 33.7577V35.8413H149.077V34.0522C149.077 33.4011 148.513 32.5546 147.153 32.5546H142.74V35.8413H140.116V24.0589H148.581C150.674 24.0589 152.167 25.9797 152.167 28.5501C152.165 30.2105 151.669 31.5112 150.739 32.1314ZM165.61 35.2227C164.813 35.8398 163.948 35.8397 163.319 35.8397H154.821V24.0573H163.319C164.016 24.0573 165.011 24.155 165.61 24.6759C166.206 25.1952 166.968 25.7813 166.968 29.6865C166.97 33.5933 166.507 34.57 165.61 35.2227ZM56.5514 35.8397H36.2381L37.0018 33.7902C45.7655 33.2693 49.6153 26.1084 49.6153 20.5753C49.6153 14.7182 44.8358 7.97891 36.1401 7.81613L36.8705 5.7666H56.953C58.5451 5.7666 60.0392 7.23011 60.0392 8.59749V31.674C60.0376 34.3747 58.9435 35.8397 56.5514 35.8397ZM29.4333 35.8397H13.5344C11.1438 35.8397 10.0481 34.3747 10.0481 31.674V8.59749C10.0481 7.23011 11.5438 5.7666 13.1359 5.7666H29.9993L29.3021 7.78357C24.257 9.73697 20.3739 14.7182 20.3739 20.5753C20.3739 26.1084 23.6926 31.4787 30.2318 33.5933L29.4333 35.8397Z" fill="#2360A5"/>
<path fill-rule="evenodd" clip-rule="evenodd" d="M35.4429 18.2636C35.2437 18.8497 32.4547 26.5315 32.4547 26.5315H29.2009L32.7867 16.6373H30.9938L27.408 26.5315H24.2538L31.7891 5.76494H34.9417L31.6231 14.9103H33.9804C35.1077 14.9103 35.9061 15.7227 35.9061 16.6684C35.9077 17.1257 35.5741 17.9071 35.4429 18.2636ZM45.9631 18.2311C45.7655 18.8171 43.9062 23.9611 43.5742 24.8401C43.2406 25.7176 42.7773 26.9873 41.2501 26.9873H37.699L34.4452 35.8396H31.1915L38.7931 14.9118H44.5023C45.5979 14.9118 46.428 15.7242 46.428 16.6699C46.4296 17.0606 46.1971 17.6125 45.9631 18.2311ZM41.4493 16.6373L38.3299 25.2618H40.1212L43.2406 16.6373H41.4493ZM162.788 8.27181V17.5474H160.163V8.27181H156.182V5.76649H166.802V8.27181H162.788ZM150.075 8.27181V17.5474H147.453V8.27181H143.469V5.76649H154.089V8.27181H150.075ZM132.054 17.5474C130.955 17.5474 129.926 16.9288 129.926 15.7909V7.523C129.926 6.51374 130.791 5.76649 132.054 5.76649H141.047V8.27181H132.552V10.3554H139.988V12.6019H132.552V15.0436H141.381V17.5489L132.054 17.5474ZM120.501 17.5474C119.406 17.5474 118.376 16.9288 118.376 15.7909V5.76649H120.998V15.0436H128.566V17.5489C128.568 17.5474 122.821 17.5474 120.501 17.5474ZM112.402 17.5474H110.31C109.779 17.5474 109.015 17.0606 108.75 16.18C108.519 15.27 106.925 9.21595 106.925 9.21595L104.601 17.5474H102.609C102.013 17.5474 101.315 17.1567 100.884 15.887C100.485 14.6514 97.6632 5.76494 97.6632 5.76494H100.386L102.909 13.901L105.497 5.76494H108.419L110.974 13.901L113.627 5.76494H116.416L112.402 17.5474ZM86.6766 17.5474C85.5477 17.5474 84.5516 16.9288 84.5516 15.7909V7.523C84.5516 6.51374 85.3817 5.76649 86.6766 5.76649H95.6711V8.27181H87.1746V10.3554H94.6102V12.6019H87.1746V15.0436H96.0031V17.5489L86.6766 17.5474ZM78.8757 17.5474V12.6019H71.6076V17.5474H68.9847V5.76649H71.6076V10.3554H78.8757V5.76649H81.4987V17.5474H78.8757ZM172.834 7.13387H172.238V8.30437H172.799C173.266 8.30437 173.561 8.14313 173.561 7.68733C173.563 7.29665 173.33 7.13387 172.834 7.13387ZM173.629 10.4175C173.528 9.96321 173.496 9.24851 173.398 9.05162C173.232 8.76016 173 8.76016 172.799 8.76016H172.238V10.4175H171.609V6.61451H172.933C173.53 6.61451 174.227 6.90597 174.227 7.58966C174.227 8.11057 173.896 8.40203 173.43 8.49971C173.596 8.56482 173.797 8.62838 173.862 8.69504C174.092 8.88883 174.092 9.24696 174.127 9.60509C174.225 10.1244 174.293 10.2872 174.328 10.4175H173.629ZM172.834 5.76959C171.275 5.76959 169.983 7.03775 169.983 8.59892C169.983 10.0934 171.273 11.3942 172.834 11.3942C173.588 11.3885 174.31 11.0922 174.843 10.5692C175.377 10.0462 175.679 9.33851 175.685 8.59892C175.683 7.03775 174.393 5.76959 172.834 5.76959ZM172.834 11.7833C172.405 11.7859 171.98 11.7056 171.583 11.547C171.186 11.3883 170.824 11.1544 170.519 10.8586C170.214 10.5628 169.972 10.211 169.806 9.82325C169.64 9.4355 169.554 9.01946 169.552 8.59892C169.552 6.7773 171.013 5.37891 172.834 5.37891C174.625 5.37891 176.116 6.7773 176.116 8.59892C176.116 10.3539 174.624 11.7833 172.834 11.7833ZM56.8518 111.633C56.8518 113.311 55.8257 114.08 54.1403 114.08C53.6265 114.08 53.0162 114.055 52.5039 114.032V109.26C52.9434 109.235 53.432 109.212 53.7988 109.212C55.8984 109.212 56.8518 110.002 56.8518 111.633ZM61.6392 123.058L56.8992 115.856C58.4138 115.329 59.9048 114.128 59.9048 111.56C59.9048 108.302 57.4605 106.937 53.7735 106.937C52.4043 106.937 50.5671 107.032 49.5142 107.08V123.059H52.5039V116.244C52.9434 116.292 53.3593 116.292 53.7751 116.292L58.0739 123.059H61.6392V123.058ZM70.6922 116.669H66.8329C67.0289 114.906 67.9823 114.337 68.8851 114.337C69.7389 114.337 70.6922 114.838 70.6922 116.669ZM73.2567 118.483V117.289C73.2567 113.765 71.4005 112.55 68.8835 112.55C65.4621 112.55 63.7499 114.739 63.7499 117.934C63.7499 121.228 65.5111 123.315 68.8835 123.315C70.6669 123.315 72.1816 122.403 73.0622 121.853L72.3776 120.497C71.059 121.017 70.2764 121.278 69.0796 121.278C68.055 121.278 66.8313 120.497 66.7096 118.483H73.2567ZM79.9603 123.318C77.7089 123.318 76.2986 122.391 75.5176 121.914L76.2986 120.56C77.5887 121.177 78.4883 121.389 79.6646 121.389C80.9421 121.389 81.3832 120.938 81.3832 120.345C81.3832 119.439 80.131 119.227 78.8536 118.797C77.4417 118.321 75.9808 117.61 75.9808 115.611C75.9808 113.607 77.8559 112.553 80.1801 112.553C81.9224 112.553 83.1667 113.173 83.9983 113.655L83.2884 115.136C82.3113 114.732 81.5066 114.449 80.3524 114.449C79.0749 114.449 78.6812 114.875 78.6812 115.351C78.6812 115.802 78.9279 116.018 80.6228 116.61C81.9461 117.086 84.1437 117.442 84.1437 119.914C84.1437 122.202 82.2639 123.318 79.9603 123.318ZM93.4592 116.669H89.5999C89.796 114.906 90.7477 114.337 91.6521 114.337C92.5059 114.337 93.4592 114.838 93.4592 116.669ZM96.0253 118.483V117.289C96.0253 113.765 94.1675 112.55 91.6521 112.55C88.2291 112.55 86.5169 114.739 86.5169 117.934C86.5169 121.228 88.2782 123.315 91.6521 123.315C93.4355 123.315 94.9486 122.403 95.8292 121.853L95.1446 120.497C93.8276 121.017 93.045 121.278 91.8482 121.278C90.8205 121.278 89.5999 120.497 89.4782 118.483H96.0253ZM102.299 123.318C100.046 123.318 99.015 121.879 99.015 119.779V106.795H102.005V119.852C102.005 120.972 102.542 121.306 103.08 121.306C103.616 121.306 103.908 121.258 104.667 121.021L105.157 122.479C104.084 123.079 103.009 123.318 102.299 123.318ZM110.678 123.318C108.425 123.318 107.396 121.879 107.396 119.779V106.795H110.386V119.852C110.386 120.972 110.922 121.306 111.461 121.306C111.999 121.306 112.291 121.258 113.048 121.021L113.537 122.479C112.46 123.079 111.385 123.318 110.678 123.318ZM122.335 116.669H118.476C118.671 114.906 119.622 114.337 120.527 114.337C121.382 114.337 122.335 114.838 122.335 116.669ZM124.898 118.483V117.289C124.898 113.765 123.042 112.55 120.525 112.55C117.104 112.55 115.393 114.739 115.393 117.934C115.393 121.228 117.153 123.315 120.525 123.315C122.31 123.315 123.823 122.403 124.704 121.853L124.021 120.497C122.702 121.017 121.918 121.278 120.723 121.278C119.695 121.278 118.474 120.497 118.351 118.483H124.898ZM134.181 115.261C133.909 115.1 133.597 115.018 133.279 115.025C132.547 115.025 131.766 115.477 130.911 116.17V123.058H127.978V112.841H130.911V114.185C131.766 113.322 132.547 112.553 133.548 112.553C134.258 112.553 134.647 112.719 135.161 113.055L134.181 115.261Z" fill="#2360A5"/>
</g>
<defs>
<clipPath id="clip0">
<rect width="182" height="41" fill="white"/>
</clipPath>
</defs>
</svg>
