<svg width="222" height="70" viewBox="0 0 222 70" fill="none" xmlns="http://www.w3.org/2000/svg">
<rect y="0.6875" width="222" height="69" fill="#727272" fill-opacity="0.01"/>
<mask id="mask0" mask-type="alpha" maskUnits="userSpaceOnUse" x="0" y="0" width="222" height="70">
<rect y="0.6875" width="222" height="69" fill="white"/>
</mask>
<g mask="url(#mask0)">
<path d="M8.54272 36.009V15.0945C8.54272 15.0945 21.5873 10.9439 28.8104 15.6335C28.8104 15.6335 33.9851 11.8602 44.4424 14.4476C44.4424 14.4476 48.5929 16.4959 48.5929 20.1075V36.3863H40.5613V20.2153C40.5613 20.2153 40.5613 16.8733 34.3624 17.8974C34.3624 17.8974 32.7992 18.0052 32.7992 19.2989V36.2246H24.2825V19.8379C24.2825 19.8379 23.7435 17.6279 19.2695 17.6279C19.2695 17.6279 16.6821 17.0889 16.6821 20.2153V36.1168L8.54272 36.009Z" fill="white"/>
<path d="M58.8885 13.8007H67.2974V34.1762C67.2974 34.1762 67.4052 36.3862 66.381 38.165C66.381 38.165 64.0632 45.7654 54.5223 45.7654V41.2375C54.5223 41.2375 58.7806 40.3211 58.7806 36.0628V13.9624L58.8885 13.8007Z" fill="white"/>
<path d="M99.855 3.55907H108.264V36.1167H99.7472V4.0981L99.855 3.55907Z" fill="white"/>
<path d="M136.294 25.2822C136.294 31.6967 130.688 36.9253 123.842 36.9253C116.942 36.9253 111.39 31.6967 111.39 25.2822C111.39 18.8677 116.996 13.639 123.842 13.639C130.742 13.639 136.294 18.8677 136.294 25.2822ZM123.95 17.5201C121.416 17.5201 119.368 20.916 119.368 25.0666C119.368 29.2171 121.416 32.613 123.95 32.613C126.483 32.613 128.532 29.2171 128.532 25.0666C128.532 20.916 126.483 17.5201 123.95 17.5201Z" fill="white"/>
<path d="M163.192 25.1743C163.192 31.5888 157.586 36.8174 150.74 36.8174C143.84 36.8174 138.288 31.5888 138.288 25.1743C138.288 18.7598 143.894 13.5312 150.74 13.5312C157.586 13.5312 163.192 18.7059 163.192 25.1743ZM150.848 17.4122C148.314 17.4122 146.266 20.8081 146.266 24.9587C146.266 29.1093 148.314 32.5052 150.848 32.5052C153.381 32.5052 155.429 29.1093 155.429 24.9587C155.429 20.8081 153.381 17.4122 150.848 17.4122Z" fill="white"/>
<path d="M67.7286 4.74498C67.7286 6.84721 65.6802 8.51821 63.1468 8.51821C60.6133 8.51821 58.565 6.84721 58.565 4.74498C58.565 2.64274 60.6133 0.971741 63.1468 0.971741C65.6802 0.971741 67.7286 2.64274 67.7286 4.74498Z" fill="#F18A00"/>
<path d="M55.3308 4.69105C55.3308 6.46986 53.552 7.97915 51.3419 7.97915C49.1319 7.97915 47.3531 6.52376 47.3531 4.69105C47.3531 2.91224 49.1319 1.40294 51.3419 1.40294C53.552 1.40294 55.3308 2.85833 55.3308 4.69105Z" fill="#F18A00"/>
<path d="M43.0948 4.69108C43.0948 6.30818 41.4777 7.60185 39.5372 7.60185C37.5966 7.60185 35.9796 6.30818 35.9796 4.69108C35.9796 3.07397 37.5966 1.78029 39.5372 1.78029C41.4777 1.78029 43.0948 3.07397 43.0948 4.69108Z" fill="#F18A00"/>
<path d="M30.2658 4.79882C30.2658 6.20031 28.8643 7.38618 27.1394 7.38618C25.4145 7.38618 24.013 6.25421 24.013 4.79882C24.013 3.39733 25.4145 2.21146 27.1394 2.21146C28.8643 2.26536 30.2658 3.39733 30.2658 4.79882Z" fill="#F18A00"/>
<path d="M18.1915 4.74499C18.1915 5.98477 16.9517 6.95503 15.4963 6.95503C13.987 6.95503 12.8011 5.93086 12.8011 4.74499C12.8011 3.50521 14.0409 2.53496 15.4963 2.53496C17.0056 2.53496 18.1915 3.50521 18.1915 4.74499Z" fill="#F18A00"/>
<path d="M5.30858 4.74494C5.30858 5.76911 4.28442 6.57766 3.04464 6.57766C1.80486 6.57766 0.780701 5.76911 0.780701 4.74494C0.780701 3.72078 1.80486 2.91223 3.04464 2.91223C4.28442 2.91223 5.30858 3.72078 5.30858 4.74494Z" fill="#F18A00"/>
<path d="M90.5297 61.1279V63.0145C89.4517 63.284 88.5892 63.3918 87.9963 63.3918C87.1338 63.3918 86.3792 63.2301 85.7323 62.9067C85.0855 62.5833 84.5465 62.0981 84.223 61.4513C83.8457 60.8045 83.684 59.7803 83.684 58.3788V51.4253H81.3123V49.5387H83.684V46.3584H85.9479V49.5387H89.8829V51.4253H85.9479V57.732C85.9479 58.9179 86.0557 59.7803 86.2175 60.2115C86.3792 60.6967 86.7026 61.0201 87.0799 61.2357C87.4572 61.4513 87.9424 61.5591 88.5353 61.5591C88.9665 61.5591 89.6134 61.4513 90.5297 61.1279Z" fill="#F18A00" stroke="#E68C00" stroke-width="0.25"/>
<path d="M102.82 59.5647H105.084V59.6725C105.084 60.2654 104.868 60.9123 104.383 61.5052C103.898 62.1521 103.305 62.5833 102.55 62.9067C101.796 63.2301 100.879 63.3918 99.9089 63.3918C97.9145 63.3918 96.3513 62.745 95.2193 61.3974C94.1413 60.0498 93.5483 58.3788 93.5483 56.3305C93.5483 54.2283 94.1413 52.5034 95.2733 51.1558C96.4591 49.8082 97.9145 49.1075 99.7472 49.1075C100.771 49.1075 101.688 49.3231 102.496 49.7543C103.305 50.1855 103.952 50.8863 104.437 51.8026C104.922 52.719 105.138 54.0666 105.138 55.7376V56.4922H95.7584C95.7584 57.9476 96.1357 59.1335 96.8904 60.0498C97.645 60.9662 98.6692 61.4513 100.017 61.4513C100.987 61.4513 101.688 61.2357 102.119 60.8584C102.55 60.4811 102.766 60.0498 102.766 59.5647H102.82ZM95.9201 54.8751H102.981V54.6056C102.981 53.9587 102.82 53.3658 102.55 52.7729C102.281 52.1799 101.849 51.7487 101.31 51.4792C100.771 51.2097 100.178 51.048 99.5316 51.048C98.7231 51.048 97.9684 51.3714 97.2677 52.0721C96.6208 52.719 96.1896 53.6892 95.9201 54.8751Z" fill="#F18A00" stroke="#E68C00" stroke-width="0.25"/>
<path d="M118.02 59.5647H120.284V59.6725C120.284 60.2654 120.069 60.9123 119.584 61.5052C119.152 62.0982 118.506 62.5833 117.805 62.9067C117.05 63.2301 116.188 63.3918 115.11 63.3918C113.115 63.3918 111.552 62.745 110.474 61.5052C109.396 60.2655 108.857 58.4866 108.857 56.2766C108.857 54.0666 109.396 52.2877 110.474 51.048C111.552 49.8082 113.115 49.1613 115.11 49.1613C116.134 49.1613 117.05 49.3231 117.805 49.6465C118.559 49.9699 119.152 50.4011 119.584 50.9941C120.015 51.587 120.284 52.1799 120.284 52.8807V52.9885H118.02V52.8807C118.02 52.3956 117.805 51.9643 117.374 51.587C116.888 51.2097 116.188 51.048 115.271 51.048C114.139 51.048 113.169 51.4792 112.414 52.2878C111.66 53.0963 111.229 54.4439 111.229 56.2766C111.229 58.1093 111.606 59.4569 112.414 60.3193C113.169 61.1279 114.139 61.5591 115.271 61.5591C116.242 61.5591 116.942 61.3974 117.374 61.0201C117.805 60.6428 118.02 60.2115 118.02 59.7264V59.5647Z" fill="#F18A00" stroke="#E68C00" stroke-width="0.25"/>
<path d="M126.268 63.0684H124.004V43.5554H126.268V51.8565C126.753 51.1019 127.184 50.5628 127.669 50.2394C128.1 49.8621 128.586 49.5926 129.071 49.4309C129.556 49.2691 130.095 49.1613 130.688 49.1613C131.55 49.1613 132.305 49.323 132.952 49.7004C133.599 50.0777 134.138 50.5628 134.515 51.2097C134.892 51.9104 135.054 52.9885 135.054 54.4439V63.0684H132.79V55.4141C132.79 54.1743 132.682 53.3658 132.574 52.8268C132.413 52.3416 132.089 51.9104 131.658 51.6409C131.227 51.3714 130.688 51.2097 130.095 51.2097C129.448 51.2097 128.801 51.4253 128.208 51.8026C127.615 52.1799 127.13 52.719 126.753 53.4197C126.375 54.1205 126.214 55.0907 126.214 56.3844V63.0684H126.268Z" fill="#F18A00" stroke="#E68C00" stroke-width="0.25"/>
<path d="M141.738 63.0684H139.474V49.5387H141.738V51.8565C142.223 51.1019 142.654 50.5628 143.139 50.2394C143.571 49.8621 144.056 49.5926 144.541 49.4309C145.026 49.2692 145.565 49.1613 146.158 49.1613C147.02 49.1613 147.775 49.3231 148.422 49.7004C149.069 50.0777 149.608 50.5628 149.985 51.2097C150.362 51.9104 150.524 52.9885 150.524 54.4439V63.0684H148.26V55.4141C148.26 54.1744 148.152 53.3658 148.045 52.8268C147.883 52.3417 147.56 51.9104 147.074 51.6409C146.589 51.3714 146.104 51.2097 145.565 51.2097C144.918 51.2097 144.271 51.4253 143.678 51.8026C143.086 52.1799 142.6 52.719 142.223 53.4197C141.846 54.1205 141.684 55.0907 141.684 56.3844V63.0684H141.738Z" fill="#F18A00" stroke="#E68C00" stroke-width="0.25"/>
<path d="M160.658 63.4457C158.879 63.4457 157.37 62.8528 156.13 61.6669C154.89 60.481 154.243 58.7022 154.243 56.3305C154.243 53.9587 154.89 52.1799 156.13 50.9941C157.37 49.8082 158.879 49.2152 160.658 49.2152C162.437 49.2152 163.946 49.8082 165.186 50.9941C166.426 52.1799 167.072 53.9587 167.072 56.3305C167.072 58.7022 166.426 60.481 165.186 61.6669C163.946 62.8528 162.437 63.4457 160.658 63.4457ZM160.658 61.5591C161.844 61.5591 162.814 61.074 163.569 60.1037C164.323 59.1335 164.647 57.8937 164.647 56.2766C164.647 54.7134 164.269 53.4197 163.569 52.4494C162.814 51.4792 161.844 50.9941 160.658 50.9941C159.418 50.9941 158.448 51.4792 157.747 52.4494C156.993 53.4197 156.669 54.6595 156.669 56.2766C156.669 57.8398 157.046 59.1335 157.747 60.1037C158.502 61.074 159.472 61.5591 160.658 61.5591Z" fill="#F18A00" stroke="#E68C00" stroke-width="0.25"/>
<path d="M173.218 63.0684H170.954V43.5554H173.218V63.0684Z" fill="#F18A00" stroke="#E68C00" stroke-width="0.25"/>
<path d="M183.513 63.4457C181.734 63.4457 180.225 62.8528 178.985 61.6669C177.745 60.481 177.098 58.7022 177.098 56.3305C177.098 53.9587 177.745 52.1799 178.985 50.9941C180.225 49.8082 181.734 49.2152 183.513 49.2152C185.292 49.2152 186.801 49.8082 188.041 50.9941C189.281 52.1799 189.927 53.9587 189.927 56.3305C189.927 58.7022 189.281 60.481 188.041 61.6669C186.747 62.8528 185.238 63.4457 183.513 63.4457ZM183.513 61.5591C184.699 61.5591 185.669 61.074 186.424 60.1037C187.178 59.1335 187.502 57.8937 187.502 56.2766C187.502 54.7134 187.124 53.4197 186.424 52.4494C185.669 51.4792 184.699 50.9941 183.513 50.9941C182.273 50.9941 181.303 51.4792 180.602 52.4494C179.848 53.4197 179.524 54.6595 179.524 56.2766C179.524 57.8398 179.901 59.1335 180.602 60.1037C181.303 61.074 182.273 61.5591 183.513 61.5591Z" fill="#F18A00" stroke="#E68C00" stroke-width="0.25"/>
<path d="M203.08 60.2115C202.595 61.1818 202.002 61.8825 201.301 62.3677C200.546 62.8528 199.684 63.0684 198.714 63.0684C197.097 63.0684 195.803 62.4216 194.725 61.1818C193.701 59.942 193.162 58.271 193.162 56.1688C193.162 54.8212 193.377 53.5814 193.862 52.4495C194.348 51.3175 194.994 50.5089 195.857 49.9699C196.719 49.4309 197.69 49.1613 198.822 49.1613C199.684 49.1613 200.439 49.3231 201.085 49.6465C201.732 49.9699 202.433 50.6706 203.08 51.6948V49.5387H205.344V60.5889C205.344 63.3918 205.074 65.2246 204.481 66.087C203.888 66.9495 203.188 67.6502 202.271 68.0814C201.355 68.5127 200.331 68.7283 199.145 68.7283C198.013 68.7283 197.043 68.5666 196.126 68.2431C195.264 67.9197 194.563 67.4885 194.132 66.8956C193.647 66.3026 193.431 65.7097 193.431 65.1167V64.9011H195.695V65.1167C195.695 65.7097 196.019 66.1948 196.665 66.5182C197.312 66.8956 198.121 67.0573 199.145 67.0573C199.953 67.0573 200.654 66.8956 201.193 66.626C201.786 66.3565 202.217 65.8714 202.595 65.2785C202.972 64.6316 203.134 63.4996 203.134 61.8825V60.2115H203.08ZM203.08 55.8993C203.08 54.4439 202.703 53.258 201.948 52.3955C201.193 51.4792 200.331 51.048 199.307 51.048C198.229 51.048 197.312 51.4792 196.558 52.3955C195.857 53.3119 195.48 54.5517 195.48 56.2227C195.48 57.2469 195.641 58.1632 195.911 58.9179C196.18 59.6725 196.665 60.2655 197.258 60.6967C197.851 61.074 198.552 61.2896 199.253 61.2896C200.385 61.2896 201.301 60.8045 202.002 59.7803C202.703 58.7562 203.08 57.4625 203.08 55.8993Z" fill="#F18A00" stroke="#E68C00" stroke-width="0.25"/>
<path d="M214.292 62.4216L208.47 49.5387H210.95L215.478 59.6186L219.736 49.5387H222L216.286 63.0684C215.532 64.9011 214.885 66.087 214.346 66.6799C213.807 67.2729 213.268 67.7041 212.729 67.9197C212.136 68.1353 211.381 68.297 210.465 68.297H208.794V66.4104H210.033C210.626 66.4104 211.219 66.3026 211.651 66.1409C212.136 65.9792 212.513 65.7097 212.836 65.3323C213.16 64.955 213.537 64.1465 214.076 62.9606L214.292 62.4216Z" fill="#F18A00" stroke="#E68C00" stroke-width="0.25"/>
<path d="M82.6598 11.0517C82.6598 9.65017 83.7918 3.7747 91.446 3.7747H91.4999C93.117 3.7208 95.1115 3.72079 95.1115 3.72079V7.87135C90.5836 7.87135 90.8531 10.7282 90.8531 10.7282V14.0702H95.1115V18.3286H90.8531V36.2784H82.6059V18.4364L82.4981 18.1669H79.5334V13.9085H82.7676C82.6598 13.9085 82.6598 12.4531 82.6598 11.0517Z" fill="white"/>
<path d="M181.788 13.639V3.6669H190.197V34.7152C190.197 34.7152 186.585 36.3862 184.537 36.6558C184.537 36.6558 178.069 37.6799 174.349 36.3862C174.349 36.3862 166.857 34.823 165.455 27.061C165.455 27.061 164.162 18.9216 169.983 15.6874C169.875 15.7413 174.296 11.8602 181.788 13.639ZM181.788 32.2357V17.7357C180.926 17.3045 179.039 17.4662 179.039 17.4662C176.074 17.4662 173.703 20.8621 173.703 25.1204C173.703 29.3249 176.074 32.7747 179.039 32.7747C181.141 32.7208 181.788 32.2357 181.788 32.2357Z" fill="white"/>
</g>
</svg>
