<svg width="105" height="105" viewBox="0 0 105 105" fill="none" xmlns="http://www.w3.org/2000/svg">
<circle cx="52.5" cy="52.5" r="52.5" fill="url(#paint0_linear)"/>
<path fill-rule="evenodd" clip-rule="evenodd" d="M77.6288 49.6448V56.0429C77.6288 56.8597 76.949 57.4042 76.4051 57.4042H73.9576C72.8699 57.4042 71.9181 58.0848 71.6461 59.0378C71.3742 59.9907 70.9663 60.8075 70.5584 61.6242C70.0145 62.5772 70.1505 63.6662 70.9663 64.483L72.7339 66.2527C73.2778 66.7972 73.2778 67.614 72.7339 68.1585L68.2469 72.6508C67.703 73.1953 66.8872 73.1953 66.3433 72.6508L64.5757 70.8811C63.7599 70.2005 62.6722 70.0643 61.7204 70.4727C60.9046 70.8811 60.0888 71.2895 59.137 71.5618C58.1852 71.834 57.5053 72.7869 57.5053 73.876V76.3263C57.5053 77.007 56.9615 77.6876 56.1456 77.6876H49.7551C49.0752 77.6876 48.3954 77.1431 48.3954 76.3263V73.876C48.3954 72.7869 47.7156 71.834 46.7638 71.5618C45.812 71.2895 44.9962 70.8811 44.1803 70.4727C43.2286 69.9282 42.1408 70.0643 41.325 70.8811L39.5574 72.6508C39.0135 73.1953 38.1977 73.1953 37.6538 72.6508L33.1668 68.1585C32.623 67.614 32.623 66.7972 33.1668 66.2527L34.9344 64.483C35.6143 63.6662 35.7503 62.5772 35.3423 61.6242C34.9344 60.8075 34.5265 59.9907 34.2546 59.0378C33.9826 58.0848 33.0309 57.4042 31.9431 57.4042H29.3597C28.6798 57.4042 28 56.8597 28 56.0429V49.6448C28 48.9641 28.5439 48.2834 29.3597 48.2834H31.8071C32.8949 48.2834 33.8467 47.6028 34.1186 46.6499C34.3906 45.697 34.7985 44.8802 35.2064 44.0634C35.7503 43.1105 35.6143 42.0214 34.7985 41.2047L33.0309 39.435C32.487 38.8904 32.487 38.0737 33.0309 37.5291L37.5179 33.0368C38.0617 32.4923 38.8775 32.4923 39.4214 33.0368L41.189 34.8065C42.0048 35.4872 43.0926 35.6233 44.0444 35.2149C44.8602 34.8065 45.676 34.3981 46.6278 34.1259C47.5796 33.8536 48.2594 32.9007 48.2594 31.8117V29.3613C48.2594 28.6807 48.8033 28 49.6191 28H56.0097C56.6895 28 57.3694 28.5445 57.3694 29.3613V31.8117C57.3694 32.9007 58.0492 33.8536 59.001 34.1259C59.9528 34.3981 60.7686 34.8065 61.5844 35.2149C62.5362 35.7594 63.624 35.6233 64.4398 34.8065L66.2074 33.0368C66.7513 32.4923 67.5671 32.4923 68.1109 33.0368L72.5979 37.5291C73.1418 38.0737 73.1418 38.8904 72.5979 39.435L70.8303 41.2047C70.1505 42.0214 70.0145 43.1105 70.4224 44.0634C70.8303 44.8802 71.2382 45.697 71.5102 46.6499C71.7821 47.6028 72.7339 48.2834 73.8217 48.2834H76.2691C76.949 48.2834 77.6288 48.828 77.6288 49.6448ZM41.0531 52.7758C41.0531 59.31 46.3559 64.6191 52.8824 64.6191C59.4089 64.6191 64.7117 59.31 64.7117 52.7758C64.7117 46.2415 59.4089 40.9324 52.8824 40.9324C46.3559 40.9324 41.0531 46.2415 41.0531 52.7758Z" fill="#F4F4F4"/>
<path d="M52.8824 59.4462C49.2112 59.4462 46.3558 56.4513 46.3558 52.912C46.3558 49.2364 49.3472 46.3777 52.8824 46.3777C56.5535 46.3777 59.4089 49.3726 59.4089 52.912C59.4089 56.4513 56.4176 59.4462 52.8824 59.4462Z" fill="#F4F4F4"/>
<defs>
<linearGradient id="paint0_linear" x1="105" y1="15.9783" x2="-37.4277" y2="89.0519" gradientUnits="userSpaceOnUse">
<stop stop-color="#A869C5"/>
<stop offset="1" stop-color="#542D6C"/>
</linearGradient>
</defs>
</svg>
