<svg width="105" height="105" viewBox="0 0 105 105" fill="none" xmlns="http://www.w3.org/2000/svg">
<circle cx="52.5" cy="52.5" r="52.5" fill="url(#paint0_linear)"/>
<path fill-rule="evenodd" clip-rule="evenodd" d="M60.9923 53.6867C76.3569 52.8699 77.9885 39.8014 78.1245 35.7175C78.1245 34.9007 77.8525 34.0839 77.3086 33.5394C76.7648 32.9949 75.949 32.5865 75.1331 32.5865H69.6944C69.6944 32.0701 69.7343 31.5536 69.7709 31.0805V31.0805L69.7709 31.0804C69.8018 30.6806 69.8303 30.3117 69.8303 30H52.5622H35.2941C35.2941 30.6807 35.2941 31.6336 35.4301 32.5865H29.9913C29.1755 32.5865 28.3597 32.8587 27.8158 33.5394C27.2719 34.0839 27 34.9007 27 35.7175C27.136 39.8014 28.7676 52.8699 44.1321 53.6867C45.6278 55.048 47.3954 56.1371 49.4349 56.9538C50.2508 57.2261 50.6587 58.0429 50.6587 58.8597V63.8965C50.6587 65.6662 49.163 67.1636 47.3954 67.1636H41.1408V74.6508H63.8477V67.1636H57.5931C55.8255 67.1636 54.3298 65.6662 54.3298 63.8965V58.8597C54.3298 58.0429 54.8737 57.2261 55.5536 56.9538C57.7291 56.1371 59.4967 55.048 60.9923 53.6867ZM75.1331 35.4452H75.2691V35.5814C75.1331 39.5291 73.6375 48.3776 63.9837 50.4196C67.5189 45.7911 68.8785 39.9375 69.4224 35.4452H75.1331ZM29.8554 35.4452L29.7194 35.5814C29.8554 39.6653 31.215 48.3776 41.0048 50.4196C37.6056 45.7911 36.1099 39.9375 35.5661 35.4452H29.8554Z" fill="#F4F4F4"/>
<defs>
<linearGradient id="paint0_linear" x1="105" y1="15.9783" x2="-37.4277" y2="89.0519" gradientUnits="userSpaceOnUse">
<stop stop-color="#A869C5"/>
<stop offset="1" stop-color="#542D6C"/>
</linearGradient>
</defs>
</svg>
