<svg width="105" height="105" viewBox="0 0 105 105" fill="none" xmlns="http://www.w3.org/2000/svg">
<circle cx="52.5" cy="52.5" r="52.5" fill="url(#paint0_linear)"/>
<path fill-rule="evenodd" clip-rule="evenodd" d="M72.975 52.0112C72.975 56.2312 71.4793 60.3152 69.1678 63.5823L71.6153 71.3417L63.7291 68.8914C60.6018 70.7972 56.9306 72.0224 52.9875 72.0224C41.974 72.0224 33 63.0378 33 52.0112C33 40.9846 41.974 32 52.9875 32C64.001 32 72.975 40.9846 72.975 52.0112ZM44.0135 52.0112C44.0135 52.828 44.6934 53.5086 45.5092 53.5086C46.189 53.5086 46.8689 52.828 47.0048 52.0112C47.0048 51.1944 46.325 50.5138 45.5092 50.5138C44.6934 50.5138 44.0135 51.1944 44.0135 52.0112ZM52.9875 53.5086C52.1717 53.5086 51.4918 52.828 51.4918 52.0112C51.4918 51.1944 52.1717 50.5138 52.9875 50.5138C53.8033 50.5138 54.4832 51.1944 54.4832 52.0112C54.3472 52.828 53.6673 53.5086 52.9875 53.5086ZM58.8342 52.0112C58.8342 52.828 59.514 53.5086 60.3298 53.5086C61.1456 53.5086 61.8255 52.828 61.8255 52.0112C61.8255 51.1944 61.1456 50.5138 60.3298 50.5138C59.514 50.5138 58.8342 51.1944 58.8342 52.0112Z" fill="#F4F4F4"/>
<defs>
<linearGradient id="paint0_linear" x1="105" y1="15.9783" x2="-37.4277" y2="89.0519" gradientUnits="userSpaceOnUse">
<stop stop-color="#A869C5"/>
<stop offset="1" stop-color="#542D6C"/>
</linearGradient>
</defs>
</svg>
