<svg width="131" height="27" viewBox="0 0 131 27" fill="none" xmlns="http://www.w3.org/2000/svg">
<g clip-path="url(#clip0)">
<path d="M46.2404 15.5512L45.4596 17.6861H45.3945C45.2644 17.2047 45.0258 16.4721 44.6354 15.5931L40.4495 5.44191H36.3503V21.621H39.0614V11.6373C39.0614 11.0094 39.0614 10.2977 39.0397 9.41866C39.0181 8.97912 38.9747 8.64424 38.953 8.39308H39.0181C39.1482 9.02098 39.3 9.48145 39.4085 9.77447L44.4402 21.5791H46.3488L51.3373 9.66982C51.4457 9.39773 51.5541 8.85354 51.6626 8.39308H51.7277C51.6626 9.5861 51.6192 10.6535 51.5975 11.3024V21.5582H54.4821V5.40005H50.5348L46.2404 15.5512ZM57.2149 9.96284H60.0344V21.5582H57.2149V9.96284ZM58.6464 5.06517C58.1692 5.06517 57.7788 5.23261 57.4535 5.52564C57.1282 5.81866 56.9546 6.1954 56.9546 6.65587C56.9546 7.0954 57.1282 7.47215 57.4535 7.76517C57.7788 8.05819 58.1692 8.20471 58.6464 8.20471C59.1235 8.20471 59.5356 8.03726 59.8392 7.76517C60.1646 7.47215 60.3381 7.0954 60.3381 6.65587C60.3381 6.21633 60.1646 5.83959 59.8392 5.52564C59.5573 5.23261 59.1452 5.06517 58.6464 5.06517ZM70.033 9.85819C69.5124 9.75354 68.9702 9.69075 68.4497 9.69075C67.17 9.69075 65.9988 9.96285 65.0229 10.507C64.0469 11.0512 63.2661 11.8047 62.7672 12.7466C62.2467 13.7094 61.9864 14.8187 61.9864 16.0954C61.9864 17.2047 62.2467 18.1884 62.7455 19.0884C63.2444 19.9675 63.9384 20.6791 64.871 21.1605C65.7603 21.6419 66.8013 21.8931 67.9725 21.8931C69.3172 21.8931 70.4667 21.621 71.3777 21.1187L71.3993 21.0977V18.5861L71.2909 18.6698C70.8788 18.9628 70.4017 19.214 69.9245 19.3605C69.4257 19.528 68.9702 19.6117 68.5798 19.6117C67.452 19.6117 66.5628 19.2977 65.9338 18.607C65.2831 17.9373 64.9578 17.0163 64.9578 15.8652C64.9578 14.6721 65.2831 13.7303 65.9555 13.0396C66.6278 12.3489 67.5171 11.9931 68.6015 11.9931C69.5124 11.9931 70.445 12.2861 71.2909 12.8721L71.3993 12.9559V10.2977L71.3777 10.2768C71.0089 10.1303 70.5969 9.96284 70.033 9.85819ZM79.3374 9.77447C78.6434 9.77447 77.9927 9.98378 77.4288 10.4233C76.9517 10.8001 76.6263 11.3442 76.3444 11.9931H76.3227V9.96284H73.5032V21.5582H76.3227V15.6349C76.3227 14.6303 76.5396 13.7931 77.0167 13.1861C77.4939 12.5582 78.1012 12.2442 78.8386 12.2442C79.0988 12.2442 79.3591 12.307 79.6844 12.3489C79.9881 12.4326 80.205 12.5163 80.3568 12.621L80.4652 12.7047V9.98378L80.4002 9.96284C80.205 9.83726 79.8146 9.77447 79.3374 9.77447ZM87.0152 9.71168C85.0416 9.71168 83.4583 10.2768 82.3522 11.3861C81.2243 12.4954 80.6821 14.0233 80.6821 15.9489C80.6821 17.7489 81.246 19.214 82.3305 20.2815C83.4149 21.328 84.8897 21.8721 86.7333 21.8721C88.6636 21.8721 90.2035 21.307 91.3096 20.1768C92.4374 19.0466 92.9796 17.5396 92.9796 15.6768C92.9796 13.8349 92.4591 12.3698 91.3964 11.3024C90.377 10.2349 88.8805 9.71168 87.0152 9.71168ZM89.2709 18.628C88.7503 19.2768 87.9262 19.5908 86.9068 19.5908C85.8874 19.5908 85.0633 19.2768 84.4777 18.5861C83.8921 17.9373 83.6101 16.9954 83.6101 15.8024C83.6101 14.5675 83.9137 13.6256 84.4777 12.9559C85.0633 12.2861 85.8657 11.9512 86.8851 11.9512C87.8828 11.9512 88.6636 12.2652 89.2275 12.914C89.7914 13.5628 90.095 14.5047 90.095 15.7396C90.0517 16.9954 89.8131 17.9791 89.2709 18.628ZM99.2694 14.7768C98.3801 14.421 97.8162 14.1489 97.556 13.9187C97.3391 13.7094 97.2306 13.4163 97.2306 13.0396C97.2306 12.7256 97.3608 12.4117 97.6861 12.2024C98.0114 11.9931 98.3801 11.8884 98.9224 11.8884C99.3995 11.8884 99.8983 11.9721 100.375 12.0977C100.853 12.2233 101.286 12.4117 101.633 12.6628L101.742 12.7466V10.1931L101.677 10.1721C101.351 10.0466 100.918 9.92098 100.397 9.81633C99.8767 9.73261 99.3995 9.69075 99.0091 9.69075C97.6644 9.69075 96.5583 10.0047 95.6907 10.6954C94.8232 11.3442 94.4111 12.2233 94.4111 13.2489C94.4111 13.7931 94.4979 14.2745 94.6931 14.6721C94.8883 15.0698 95.1702 15.4466 95.5606 15.7605C95.951 16.0535 96.5149 16.3884 97.2957 16.7024C97.9464 16.9745 98.4452 17.1838 98.7488 17.3512C99.0525 17.5187 99.2477 17.707 99.3995 17.8535C99.5079 18.021 99.573 18.2303 99.573 18.5024C99.573 19.2768 98.9657 19.6535 97.7295 19.6535C97.2523 19.6535 96.7535 19.5698 96.1679 19.3814C95.5823 19.1931 95.0401 18.921 94.5846 18.607L94.4762 18.5233V21.1814L94.5412 21.2024C94.9533 21.3908 95.4522 21.5163 96.0594 21.6628C96.6667 21.7675 97.2089 21.8512 97.6861 21.8512C99.1392 21.8512 100.332 21.5373 101.178 20.8466C102.046 20.1768 102.501 19.3187 102.501 18.2094C102.501 17.4349 102.284 16.7442 101.807 16.221C101.178 15.7187 100.397 15.1954 99.2694 14.7768ZM109.94 9.71168C107.967 9.71168 106.383 10.2768 105.277 11.3861C104.171 12.4954 103.607 14.0233 103.607 15.9489C103.607 17.7489 104.171 19.214 105.255 20.2815C106.34 21.328 107.815 21.8721 109.658 21.8721C111.589 21.8721 113.128 21.307 114.235 20.1768C115.362 19.0466 115.905 17.5396 115.905 15.6768C115.905 13.8349 115.384 12.3698 114.321 11.3024C113.302 10.2349 111.805 9.71168 109.94 9.71168ZM112.174 18.628C111.654 19.2768 110.829 19.5908 109.81 19.5908C108.769 19.5908 107.967 19.2768 107.381 18.5861C106.795 17.9373 106.513 16.9954 106.513 15.8024C106.513 14.5675 106.817 13.6256 107.381 12.9559C107.967 12.2861 108.769 11.9512 109.788 11.9512C110.764 11.9512 111.567 12.2652 112.131 12.914C112.695 13.5628 112.998 14.5047 112.998 15.7396C112.998 16.9954 112.716 17.9791 112.174 18.628ZM130.978 12.2024V9.96284H128.137V6.53029L128.05 6.55122L125.361 7.32564L125.296 7.34657V9.96284H121.045V8.49773C121.045 7.82796 121.218 7.30471 121.522 6.96982C121.826 6.63494 122.281 6.4675 122.845 6.4675C123.235 6.4675 123.648 6.55122 124.103 6.73959L124.211 6.80238V4.43726L124.146 4.41633C123.756 4.29075 123.235 4.20703 122.563 4.20703C121.717 4.20703 120.98 4.3954 120.307 4.70936C119.635 5.06517 119.136 5.54657 118.768 6.1954C118.399 6.82331 118.204 7.53494 118.204 8.35122V9.96284H116.23V12.1814H118.204V21.5582H121.045V12.2024H125.296V18.1675C125.296 20.6163 126.489 21.8512 128.875 21.8512C129.265 21.8512 129.677 21.7884 130.067 21.7256C130.479 21.6419 130.783 21.5373 130.957 21.4535L130.978 21.4326V19.1931L130.87 19.2768C130.696 19.3814 130.545 19.4652 130.284 19.528C130.067 19.5908 129.872 19.6117 129.72 19.6117C129.156 19.6117 128.766 19.4861 128.484 19.1721C128.224 18.8791 128.094 18.3977 128.094 17.6861V12.2024H130.978Z" fill="#737373"/>
<path d="M0 0H13.2952V12.8302H0V0Z" fill="#F25022"/>
<path d="M14.6833 0H27.9785V12.8302H14.6833V0Z" fill="#7FBA00"/>
<path d="M0 14.1697H13.2952V26.9999H0V14.1697Z" fill="#00A4EF"/>
<path d="M14.6833 14.1697H27.9785V26.9999H14.6833V14.1697Z" fill="#FFB900"/>
</g>
<defs>
<clipPath id="clip0">
<rect width="131" height="27" fill="white"/>
</clipPath>
</defs>
</svg>
