<svg xmlns="http://www.w3.org/2000/svg" width="7.529" height="15.059" viewBox="0 0 7.529 15.059">
  <path id="_" data-name="?" d="M2.354,15.059V12.137H5.039v2.921Zm.233-5V8.928a3.565,3.565,0,0,1,.389-1.645,14.674,14.674,0,0,1,.857-1.461q.467-.7.856-1.347a2.517,2.517,0,0,0,.389-1.307,1,1,0,0,0-.37-.792,1.269,1.269,0,0,0-.856-.319,1.176,1.176,0,0,0-.622.165,1.784,1.784,0,0,0-.477.421,2.492,2.492,0,0,0-.34.576,2.344,2.344,0,0,0-.175.648L0,3.209A4.2,4.2,0,0,1,1.4.833,4.018,4.018,0,0,1,4.008,0,4.162,4.162,0,0,1,5.36.216,3.437,3.437,0,0,1,6.479.843a2.917,2.917,0,0,1,.769,1.029,3.38,3.38,0,0,1,.282,1.419,3.364,3.364,0,0,1-.437,1.76A12.789,12.789,0,0,1,6.129,6.44Q5.6,7.1,5.165,7.766A2.736,2.736,0,0,0,4.728,9.3v.761Z" fill="#fff"/>
</svg>
