<svg xmlns="http://www.w3.org/2000/svg" width="207.055" height="28.701" viewBox="0 0 207.055 28.701">
  <g id="_1706_YTC_CORP_Yokohama_RedBlack_4C_Logo" data-name="1706_YTC_CORP_Yokohama(RedBlack)4C_Logo" transform="translate(-0.119 -0.156)">
    <path id="Fill_3" data-name="Fill 3" d="M17.322,0H13.25L8.666,9.4,4.076,0H0L6.866,13.65V21.8l3.582,0V13.65L17.322,0" transform="translate(49 4)"/>
    <path id="Fill_4" data-name="Fill 4" d="M11.084,22.167A11.084,11.084,0,1,1,22.166,11.084,11.1,11.1,0,0,1,11.084,22.167Zm0-18.548a7.463,7.463,0,1,0,7.456,7.466A7.472,7.472,0,0,0,11.084,3.619Z" transform="translate(62.903 3.561)"/>
    <path id="Fill_5" data-name="Fill 5" d="M11.093,22.174a11.087,11.087,0,1,1,11.088-11.1A11.022,11.022,0,0,1,11.093,22.174Zm0-18.558a7.464,7.464,0,1,0,7.465,7.462A7.474,7.474,0,0,0,11.093,3.616Z" transform="translate(97.708 3.555)"/>
    <path id="Fill_6" data-name="Fill 6" d="M15.256,0H10.491l-6.7,9.28V0H0V21.8H3.793V12.815L10.174,21.8h4.764L6.831,11.113,15.256,0" transform="translate(86.002 3.561)"/>
    <path id="Fill_7" data-name="Fill 7" d="M11.711,0V9.26H3.889V0H0V21.806H3.889V12.995h7.822v8.812h3.877V.015L11.711,0" transform="translate(120.831 3.732)"/>
    <path id="Fill_8" data-name="Fill 8" d="M4.066,21.807H0L8.049,0h3.876l8.057,21.8H15.908l-1.992-5.554H6.071L4.066,21.806ZM9.986,5.768,7.248,13.183h5.485Z" transform="translate(137.252 3.732)"/>
    <path id="Fill_9" data-name="Fill 9" d="M4.087,21.807H0L8.047.015h.165L11.529,0h.419l8.045,21.8h-4.08l-2-5.565H6.078L4.087,21.806ZM10,5.762,7.254,13.183h5.488Z" transform="translate(181.593 3.732)"/>
    <path id="Fill_10" data-name="Fill 10" d="M21.322,0H18.463l-.819.015-6.426,16.7L4.791,0,3.961.015,1.121,0,0,.015V21.806H3.9L3.961,7.557,9.4,21.806h3.625L18.467,7.557l.065,14.249H22.44V0H21.322" transform="translate(158.039 3.732)"/>
    <path id="Fill_11" data-name="Fill 11" d="M2.211,4.421A2.21,2.21,0,1,1,4.423,2.209,2.214,2.214,0,0,1,2.211,4.421Zm0-4.178A1.968,1.968,0,1,0,4.18,2.209,1.967,1.967,0,0,0,2.211.243Z" transform="translate(202.752 21.308)"/>
    <path id="Fill_12" data-name="Fill 12" d="M.283,2.585H0V0H.938a1.059,1.059,0,0,1,.436.068A.578.578,0,0,1,1.6.309.817.817,0,0,1,1.692.7a.727.727,0,0,1-.151.472A.686.686,0,0,1,1.1,1.4a.675.675,0,0,1,.182.147,1.7,1.7,0,0,1,.223.327l.363.7H1.511l-.277-.536a2.914,2.914,0,0,0-.248-.427.488.488,0,0,0-.163-.149.509.509,0,0,0-.217-.039H.283V2.584Zm0-2.3v.855h.6a.714.714,0,0,0,.3-.047A.369.369,0,0,0,1.342.94.457.457,0,0,0,1.4.706.421.421,0,0,0,1.286.4.467.467,0,0,0,.949.284Z" transform="translate(204.119 22.227)"/>
    <path id="Fill_13" data-name="Fill 13" d="M15.718,13.08l-.06.059-.051-.059-.843-.833-.057-.067.057-.057L26.9,0H24.375L13.506,10.869l-.061.058-.054-.06-.844-.833-.05-.065.059-.055L22.462,0H19.941L11.293,8.654l-.058.063-.061-.063-.834-.836-.062-.058.062-.066L18.035,0l-2.52,0L9.077,6.442l-.06.059-.06-.067L8.122,5.6,8.06,5.54l.061-.055L13.6,0H11.088L6.857,4.219l-.051.059L6.75,4.219,2.529,0,0,0,14.344,14.339l.051.06-.051.063L.107,28.7H2.628c.051-.041,14.351-14.35,14.351-14.35L31.329,0H28.8L15.718,13.08" transform="translate(17.831 0.156)" fill="#e21e31"/>
    <path id="Fill_14" data-name="Fill 14" d="M2.518,0,0,0,14.34,14.346l.061.053-.061.063L.1,28.7H2.624l14.3-14.3L2.518,0" transform="translate(0.119 0.157)" fill="#e21e31"/>
    <path id="Fill_15" data-name="Fill 15" d="M2.524,0H0L14.34,14.342l.061.053-.061.063L.11,28.692H2.635l14.29-14.3L2.524,0" transform="translate(4.541 0.161)" fill="#e21e31"/>
    <path id="Fill_16" data-name="Fill 16" d="M2.513,0,0,0,14.333,14.346l.051.052-.051.063L.1,28.7H2.623l14.3-14.3L2.513,0" transform="translate(8.981 0.157)" fill="#e21e31"/>
    <path id="Fill_17" data-name="Fill 17" d="M2.525,0H0L14.4,14.4l-.06.063L.1,28.7l2.527,0,14.3-14.3L2.525,0" transform="translate(13.401 0.157)" fill="#e21e31"/>
  </g>
</svg>
