<svg xmlns="http://www.w3.org/2000/svg" width="260.376" height="36.091" viewBox="0 0 260.376 36.091">
  <g id="Group_29" data-name="Group 29" transform="translate(-0.333 -0.444)">
    <path id="Fill_2" data-name="Fill 2" d="M3.167.005,0,0,18.033,18.04l.077.066-.077.079L.126,36.091H3.3L21.276,18.107Z" transform="translate(0.333 0.445)" fill="#e21e31"/>
    <path id="Fill_3" data-name="Fill 3" d="M3.174,0H0L18.033,18.035l.077.066-.077.079L.139,36.08H3.314L21.283,18.1Z" transform="translate(5.893 0.45)" fill="#e21e31"/>
    <path id="Fill_4" data-name="Fill 4" d="M3.16,0,0,.005,18.024,18.041l.065.066-.065.08-17.9,17.9H3.3L21.28,18.107Z" transform="translate(11.477 0.444)" fill="#e21e31"/>
    <path id="Fill_5" data-name="Fill 5" d="M3.175,0H0L18.036,18.031l.075.075-.075.08L.128,36.086l3.178.005L21.285,18.107Z" transform="translate(17.036 0.444)" fill="#e21e31"/>
    <g id="Group_28" data-name="Group 28" transform="translate(22.55 0.248)">
      <path id="Fill_6" data-name="Fill 6" d="M19.765,16.448l-.075.074-.065-.074L18.566,15.4l-.071-.084.071-.071L33.822,0H30.652L16.984,13.668l-.077.073-.068-.075-1.062-1.047-.063-.081.074-.069L28.247.006H25.076L14.2,10.882l-.072.08-.077-.08L13,9.831l-.078-.072L13,9.676,22.68.006,19.511,0l-8.1,8.1-.075.074-.075-.084L10.213,7.044l-.077-.077.077-.069L17.1.006h-3.16l-5.32,5.3-.064.074-.07-.074L3.18.006,0,0,18.038,18.031l.064.075-.064.08-17.9,17.9H3.3c.065-.052,18.046-18.045,18.046-18.045L39.4,0H36.217Z" transform="translate(0.056 0.197)" fill="#e21e31"/>
      <path id="Fill_8" data-name="Fill 8" d="M21.782,0h-5.12L10.9,11.82,5.126,0H0L8.634,17.165V27.408l4.5-.005V17.165Z" transform="translate(38.656 4.713)" fill="#fff"/>
      <path id="Fill_10" data-name="Fill 10" d="M13.939,27.876A13.939,13.939,0,1,1,27.874,13.939,13.954,13.954,0,0,1,13.939,27.876Zm0-23.324a9.385,9.385,0,1,0,9.375,9.388A9.4,9.4,0,0,0,13.939,4.551Z" transform="translate(56.734 4.478)" fill="#fff"/>
      <path id="Fill_12" data-name="Fill 12" d="M13.95,27.884A13.949,13.949,0,1,1,23.81,23.8,13.86,13.86,0,0,1,13.95,27.884Zm0-23.336a9.386,9.386,0,1,0,9.388,9.383A9.4,9.4,0,0,0,13.95,4.548Z" transform="translate(100.502 4.47)" fill="#fff"/>
      <path id="Fill_14" data-name="Fill 14" d="M19.184,0H13.193L4.77,11.67V0H0V27.411H4.77v-11.3l8.025,11.3h5.991L8.59,13.975Z" transform="translate(85.782 4.478)" fill="#fff"/>
      <path id="Fill_16" data-name="Fill 16" d="M14.726,0V11.644H4.89V0H0V27.422H4.89V16.341h9.836V27.422H19.6V.019Z" transform="translate(129.58 4.693)" fill="#fff"/>
      <path id="Fill_18" data-name="Fill 18" d="M5.113,27.423H0L10.121,0H15L25.128,27.421H20l-2.5-6.985H7.635L5.113,27.422ZM12.558,7.254,9.114,16.578h6.9Z" transform="translate(150.229 4.693)" fill="#fff"/>
      <path id="Fill_20" data-name="Fill 20" d="M5.14,27.423H0L10.118.02h.209L14.5,0h.526L25.141,27.421h-5.13l-2.519-7H7.642l-2.5,7ZM12.57,7.245,9.122,16.578h6.9Z" transform="translate(205.989 4.693)" fill="#fff"/>
      <path id="Fill_22" data-name="Fill 22" d="M26.814,0h-3.6L22.189.019l-8.08,21L6.025,0,4.981.019,1.41,0,0,.019v27.4H4.9L4.981,9.5,11.82,27.422h4.558L23.223,9.5l.082,17.919h4.913V0Z" transform="translate(176.369 4.693)" fill="#fff"/>
      <path id="Fill_24" data-name="Fill 24" d="M2.781,5.559A2.78,2.78,0,1,1,5.562,2.778,2.784,2.784,0,0,1,2.781,5.559Zm0-5.253A2.475,2.475,0,1,0,5.256,2.778,2.475,2.475,0,0,0,2.781.306Z" transform="translate(232.596 26.794)" fill="#fff"/>
      <path id="Fill_26" data-name="Fill 26" d="M.355,3.251H0V0H1.179a1.333,1.333,0,0,1,.548.086.727.727,0,0,1,.285.3,1.022,1.022,0,0,1,.115.494.913.913,0,0,1-.191.594.858.858,0,0,1-.559.291.873.873,0,0,1,.229.184,2.162,2.162,0,0,1,.28.411l.457.886H1.9l-.348-.674a3.691,3.691,0,0,0-.311-.537.6.6,0,0,0-.206-.187A.642.642,0,0,0,.762,1.8H.355V3.25Zm0-2.893V1.433h.753a.9.9,0,0,0,.373-.059.449.449,0,0,0,.207-.193A.577.577,0,0,0,1.764.887.529.529,0,0,0,1.617.5.591.591,0,0,0,1.192.358Z" transform="translate(234.315 27.95)" fill="#fff"/>
    </g>
  </g>
</svg>
