<svg xmlns="http://www.w3.org/2000/svg" width="21" height="20" viewBox="0 0 21 20">
  <g id="Path" fill="none" stroke-miterlimit="10">
    <path d="M10.5,16.074,16.989,20l-1.722-7.4L21,7.621l-7.55-.642L10.5,0,7.549,6.979,0,7.621,5.733,12.6,4.011,20Z" stroke="none"/>
    <path d="M 15.39791488647461 17.80695724487305 L 14.24176025390625 12.83858013153076 L 14.09805011749268 12.22101020812988 L 14.57678031921387 11.80525016784668 L 18.42993927001953 8.458889007568359 L 13.36128997802734 8.027790069580078 L 12.72832012176514 7.973959922790527 L 12.48095035552979 7.388850212097168 L 10.5 2.703220129013062 L 8.519049644470215 7.388850212097168 L 8.271679878234863 7.973959922790527 L 7.638710021972656 8.027790069580078 L 2.57006049156189 8.458889007568359 L 6.423220157623291 11.80525016784668 L 6.901949882507324 12.22101020812988 L 6.758240222930908 12.83858013153076 L 5.602085113525391 17.80695724487305 L 9.955069541931152 15.1730899810791 L 10.5 14.84337043762207 L 11.04493045806885 15.1730899810791 L 15.39791488647461 17.80695724487305 M 16.98900032043457 20 L 10.5 16.07369041442871 L 4.011000156402588 20 L 5.732999801635742 12.60000038146973 L 0 7.621049880981445 L 7.549499988555908 6.978950023651123 L 10.5 0 L 13.45049953460693 6.978950023651123 L 21 7.621049880981445 L 15.26700019836426 12.60000038146973 L 16.98900032043457 20 Z" stroke="none" fill="#e21e31"/>
  </g>
</svg>
